<svg width="255" height="193" viewBox="0 0 255 193" fill="none" xmlns="http://www.w3.org/2000/svg">
<path d="M82.8494 79.176H79.7534V76.56H89.4254V79.176H86.4014V96H82.8494V79.176ZM91.1945 76.56H99.3545V79.056H94.7225V84.648H98.3705V87.12H94.7225V93.576H99.4025V96H91.1945V76.56ZM100.116 93.456C100.932 93.472 101.516 93.344 101.868 93.072C102.236 92.784 102.516 92.144 102.708 91.152C102.9 90.16 103.084 88.456 103.26 86.04L103.884 76.56H113.34V96H109.812V79.224H107.004L106.596 86.472C106.436 89.064 106.22 90.992 105.948 92.256C105.676 93.504 105.164 94.448 104.412 95.088C103.676 95.712 102.532 96.024 100.98 96.024C100.612 96.024 100.324 96.016 100.116 96V93.456ZM116.343 76.56H124.503V79.056H119.871V84.648H123.519V87.12H119.871V93.576H124.551V96H116.343V76.56ZM132.129 93.696C131.457 93.744 131.065 93.768 130.953 93.768C129.481 93.768 128.329 93.368 127.497 92.568C126.681 91.752 126.273 90.504 126.273 88.824V83.448C126.273 81.832 126.689 80.6 127.521 79.752C128.369 78.904 129.529 78.48 131.001 78.48C131.369 78.48 131.745 78.496 132.129 78.528V75.12H135.225V78.528C135.609 78.496 135.969 78.48 136.305 78.48C137.809 78.48 138.977 78.904 139.809 79.752C140.657 80.6 141.081 81.832 141.081 83.448V88.824C141.081 90.488 140.689 91.728 139.905 92.544C139.121 93.36 138.089 93.768 136.809 93.768C136.281 93.768 135.753 93.744 135.225 93.696V96.768H132.129V93.696ZM131.553 91.608C131.745 91.608 131.937 91.592 132.129 91.56V80.64C131.841 80.608 131.609 80.592 131.433 80.592C130.729 80.592 130.217 80.816 129.897 81.264C129.593 81.696 129.441 82.416 129.441 83.424V88.848C129.441 89.872 129.585 90.592 129.873 91.008C130.161 91.408 130.721 91.608 131.553 91.608ZM135.897 91.608C136.665 91.608 137.193 91.408 137.481 91.008C137.785 90.592 137.937 89.88 137.937 88.872V83.424C137.937 82.384 137.793 81.656 137.505 81.24C137.217 80.808 136.705 80.592 135.969 80.592C135.761 80.592 135.513 80.608 135.225 80.64V91.56C135.449 91.592 135.673 91.608 135.897 91.608ZM148.998 96.264C146.982 96.264 145.542 95.728 144.678 94.656C143.814 93.568 143.382 91.984 143.382 89.904V82.608C143.382 80.544 143.814 78.984 144.678 77.928C145.542 76.872 146.982 76.344 148.998 76.344C150.998 76.344 152.43 76.872 153.294 77.928C154.158 78.984 154.59 80.544 154.59 82.608V89.904C154.59 91.968 154.15 93.544 153.27 94.632C152.406 95.72 150.982 96.264 148.998 96.264ZM148.998 93.648C149.782 93.648 150.31 93.4 150.582 92.904C150.854 92.408 150.99 91.688 150.99 90.744V81.792C150.99 80.848 150.854 80.136 150.582 79.656C150.326 79.176 149.798 78.936 148.998 78.936C148.198 78.936 147.662 79.184 147.39 79.68C147.118 80.16 146.982 80.864 146.982 81.792V90.744C146.982 91.688 147.118 92.408 147.39 92.904C147.662 93.4 148.198 93.648 148.998 93.648ZM157.266 76.56H160.794V84.672H164.754V76.56H168.306V96H164.754V87.216H160.794V96H157.266V76.56ZM171.352 82.872H174.472V86.088H171.352V82.872ZM171.352 90.984H174.472V94.2H171.352V90.984Z" fill="#999999"/>
<path d="M148.125 3.15625L139.312 1.1875C137.25 0.71875 135.188 1.75 134.438 3.625L130.312 13.1875C129.562 14.875 130.031 16.9375 131.531 18.1562L135.281 21.25C132.656 26.125 128.531 30.1562 123.656 32.875L120.562 29.125C119.344 27.625 117.281 27.1562 115.594 27.9062L106.031 31.9375C104.156 32.7812 103.125 34.8438 103.594 36.9062L105.562 45.7188C106.031 47.6875 107.812 49 109.781 49C132.75 49 151.5 30.4375 151.5 7.375C151.5 5.40625 150.094 3.625 148.125 3.15625ZM109.969 44.5L108 36.0625L117.188 32.125L122.438 38.5C131.719 34.0938 136.5 29.3125 140.906 20.0312L134.531 14.7812L138.469 5.59375L147 7.5625C146.906 27.9062 130.312 44.4062 109.969 44.5Z" fill="#F7654A"/>
<path d="M51.0497 150.264C49.8177 150.264 48.8257 150.016 48.0737 149.52C47.3217 149.024 46.7857 148.336 46.4657 147.456C46.1457 146.56 45.9857 145.528 45.9857 144.36C45.9857 143.8 46.0337 143.288 46.1297 142.824C46.2417 142.344 46.3937 141.912 46.5857 141.528C46.7937 141.144 47.0417 140.808 47.3297 140.52C47.6177 140.216 47.9457 139.968 48.3137 139.776C47.7377 139.376 47.2497 138.832 46.8497 138.144C46.4657 137.44 46.2657 136.552 46.2497 135.48C46.2497 134.424 46.4177 133.512 46.7537 132.744C47.1057 131.96 47.6417 131.368 48.3617 130.968C49.0817 130.552 49.9777 130.344 51.0497 130.344C52.1377 130.344 53.0337 130.552 53.7377 130.968C54.4417 131.384 54.9617 131.976 55.2977 132.744C55.6497 133.512 55.8177 134.424 55.8017 135.48C55.7857 136.568 55.5857 137.456 55.2017 138.144C54.8337 138.832 54.3617 139.376 53.7857 139.776C54.1537 139.968 54.4817 140.216 54.7697 140.52C55.0577 140.808 55.2977 141.144 55.4897 141.528C55.6977 141.912 55.8497 142.344 55.9457 142.824C56.0577 143.288 56.1137 143.8 56.1137 144.36C56.1297 145.528 55.9697 146.56 55.6337 147.456C55.3137 148.336 54.7777 149.024 54.0257 149.52C53.2897 150.016 52.2977 150.264 51.0497 150.264ZM51.0497 147.744C51.5777 147.744 51.9697 147.584 52.2257 147.264C52.4977 146.944 52.6737 146.544 52.7537 146.064C52.8337 145.568 52.8737 145.064 52.8737 144.552C52.8897 144.008 52.8497 143.488 52.7537 142.992C52.6577 142.48 52.4737 142.064 52.2017 141.744C51.9457 141.424 51.5617 141.264 51.0497 141.264C50.5537 141.264 50.1697 141.424 49.8977 141.744C49.6417 142.064 49.4577 142.472 49.3457 142.968C49.2497 143.464 49.2017 143.992 49.2017 144.552C49.2017 145.064 49.2417 145.568 49.3217 146.064C49.4177 146.56 49.6017 146.968 49.8737 147.288C50.1457 147.592 50.5377 147.744 51.0497 147.744ZM51.0497 138.456C51.4497 138.44 51.7617 138.304 51.9857 138.048C52.2257 137.776 52.3937 137.408 52.4897 136.944C52.5857 136.48 52.6337 135.952 52.6337 135.36C52.6337 134.624 52.5137 134.024 52.2737 133.56C52.0337 133.096 51.6257 132.864 51.0497 132.864C50.4897 132.864 50.0737 133.096 49.8017 133.56C49.5457 134.024 49.4177 134.616 49.4177 135.336C49.4177 135.928 49.4657 136.464 49.5617 136.944C49.6737 137.408 49.8497 137.776 50.0897 138.048C50.3297 138.304 50.6497 138.44 51.0497 138.456ZM69.864 154.464C68.872 154.464 68.056 154.24 67.416 153.792C66.776 153.36 66.264 152.752 65.88 151.968C65.496 151.2 65.208 150.312 65.016 149.304C64.84 148.28 64.728 147.184 64.68 146.016C64.632 144.848 64.608 143.664 64.608 142.464C64.608 141.216 64.632 140 64.68 138.816C64.728 137.632 64.84 136.528 65.016 135.504C65.208 134.48 65.496 133.584 65.88 132.816C66.264 132.048 66.776 131.448 67.416 131.016C68.056 130.584 68.872 130.368 69.864 130.368V132.624C69.368 132.624 68.968 132.88 68.664 133.392C68.376 133.904 68.16 134.608 68.016 135.504C67.872 136.4 67.776 137.448 67.728 138.648C67.696 139.832 67.68 141.104 67.68 142.464C67.68 143.856 67.696 145.144 67.728 146.328C67.776 147.512 67.872 148.544 68.016 149.424C68.176 150.304 68.4 150.984 68.688 151.464C68.976 151.96 69.368 152.216 69.864 152.232V154.464ZM76.7841 150.264C75.5521 150.264 74.5601 150.016 73.8081 149.52C73.0561 149.024 72.5201 148.336 72.2001 147.456C71.8801 146.56 71.7201 145.528 71.7201 144.36C71.7201 143.8 71.7681 143.288 71.8641 142.824C71.9761 142.344 72.1281 141.912 72.3201 141.528C72.5281 141.144 72.7761 140.808 73.0641 140.52C73.3521 140.216 73.6801 139.968 74.0481 139.776C73.4721 139.376 72.9841 138.832 72.5841 138.144C72.2001 137.44 72.0001 136.552 71.9841 135.48C71.9841 134.424 72.1521 133.512 72.4881 132.744C72.8401 131.96 73.3761 131.368 74.0961 130.968C74.8161 130.552 75.7121 130.344 76.7841 130.344C77.8721 130.344 78.7681 130.552 79.4721 130.968C80.1761 131.384 80.6961 131.976 81.0321 132.744C81.3841 133.512 81.5521 134.424 81.5361 135.48C81.5201 136.568 81.3201 137.456 80.9361 138.144C80.5681 138.832 80.0961 139.376 79.5201 139.776C79.8881 139.968 80.2161 140.216 80.5041 140.52C80.7921 140.808 81.0321 141.144 81.2241 141.528C81.4321 141.912 81.5841 142.344 81.6801 142.824C81.7921 143.288 81.8481 143.8 81.8481 144.36C81.8641 145.528 81.7041 146.56 81.3681 147.456C81.0481 148.336 80.5121 149.024 79.7601 149.52C79.0241 150.016 78.0321 150.264 76.7841 150.264ZM76.7841 147.744C77.3121 147.744 77.7041 147.584 77.9601 147.264C78.2321 146.944 78.4081 146.544 78.4881 146.064C78.5681 145.568 78.6081 145.064 78.6081 144.552C78.6241 144.008 78.5841 143.488 78.4881 142.992C78.3921 142.48 78.2081 142.064 77.9361 141.744C77.6801 141.424 77.2961 141.264 76.7841 141.264C76.2881 141.264 75.9041 141.424 75.6321 141.744C75.3761 142.064 75.1921 142.472 75.0801 142.968C74.9841 143.464 74.9361 143.992 74.9361 144.552C74.9361 145.064 74.9761 145.568 75.0561 146.064C75.1521 146.56 75.3361 146.968 75.6081 147.288C75.8801 147.592 76.2721 147.744 76.7841 147.744ZM76.7841 138.456C77.1841 138.44 77.4961 138.304 77.7201 138.048C77.9601 137.776 78.1281 137.408 78.2241 136.944C78.3201 136.48 78.3681 135.952 78.3681 135.36C78.3681 134.624 78.2481 134.024 78.0081 133.56C77.7681 133.096 77.3601 132.864 76.7841 132.864C76.2241 132.864 75.8081 133.096 75.5361 133.56C75.2801 134.024 75.1521 134.616 75.1521 135.336C75.1521 135.928 75.2001 136.464 75.2961 136.944C75.4081 137.408 75.5841 137.776 75.8241 138.048C76.0641 138.304 76.3841 138.44 76.7841 138.456ZM86.5224 150V134.232C86.4264 134.28 86.2344 134.352 85.9464 134.448C85.6744 134.544 85.3704 134.64 85.0344 134.736C84.6984 134.816 84.3864 134.896 84.0984 134.976C83.8264 135.056 83.6344 135.12 83.5224 135.168V132.696C83.7464 132.616 84.0264 132.504 84.3624 132.36C84.6984 132.216 85.0504 132.056 85.4184 131.88C85.8024 131.688 86.1544 131.48 86.4744 131.256C86.8104 131.032 87.0824 130.8 87.2904 130.56H89.8344V150H86.5224ZM93.2809 150V147.648L98.0809 140.232C98.4329 139.688 98.7609 139.168 99.0649 138.672C99.3849 138.176 99.6409 137.664 99.8329 137.136C100.041 136.592 100.145 136 100.145 135.36C100.145 134.64 100.017 134.088 99.7609 133.704C99.5049 133.32 99.1049 133.128 98.5609 133.128C98.0489 133.128 97.6489 133.272 97.3609 133.56C97.0729 133.848 96.8729 134.224 96.7609 134.688C96.6649 135.152 96.6169 135.664 96.6169 136.224V137.04H93.3529V136.176C93.3529 135.024 93.5209 134.016 93.8569 133.152C94.2089 132.272 94.7609 131.584 95.5129 131.088C96.2649 130.592 97.2489 130.344 98.4649 130.344C100.129 130.344 101.377 130.792 102.209 131.688C103.041 132.584 103.457 133.832 103.457 135.432C103.457 136.232 103.345 136.96 103.121 137.616C102.897 138.256 102.601 138.872 102.233 139.464C101.865 140.056 101.465 140.664 101.033 141.288L97.0489 147.336H102.953V150H93.2809ZM104.995 154.464V152.208C105.491 152.208 105.883 151.96 106.171 151.464C106.475 150.968 106.699 150.28 106.843 149.4C106.987 148.504 107.083 147.464 107.131 146.28C107.179 145.096 107.203 143.816 107.203 142.44C107.203 141.064 107.179 139.784 107.131 138.6C107.083 137.4 106.987 136.36 106.843 135.48C106.715 134.584 106.499 133.888 106.195 133.392C105.907 132.88 105.507 132.616 104.995 132.6V130.368C105.987 130.368 106.803 130.584 107.443 131.016C108.099 131.432 108.619 132.032 109.003 132.816C109.387 133.584 109.667 134.48 109.843 135.504C110.019 136.512 110.131 137.608 110.179 138.792C110.227 139.96 110.251 141.176 110.251 142.44C110.251 143.64 110.227 144.824 110.179 145.992C110.131 147.16 110.019 148.256 109.843 149.28C109.667 150.304 109.387 151.2 109.003 151.968C108.619 152.752 108.099 153.36 107.443 153.792C106.803 154.24 105.987 154.464 104.995 154.464ZM120.765 150V134.232C120.669 134.28 120.477 134.352 120.189 134.448C119.917 134.544 119.613 134.64 119.277 134.736C118.941 134.816 118.629 134.896 118.341 134.976C118.069 135.056 117.877 135.12 117.765 135.168V132.696C117.989 132.616 118.269 132.504 118.605 132.36C118.941 132.216 119.293 132.056 119.661 131.88C120.045 131.688 120.397 131.48 120.717 131.256C121.053 131.032 121.325 130.8 121.533 130.56H124.077V150H120.765ZM130.163 150V134.232C130.067 134.28 129.875 134.352 129.587 134.448C129.315 134.544 129.011 134.64 128.675 134.736C128.339 134.816 128.027 134.896 127.739 134.976C127.467 135.056 127.275 135.12 127.163 135.168V132.696C127.387 132.616 127.667 132.504 128.003 132.36C128.339 132.216 128.691 132.056 129.059 131.88C129.443 131.688 129.795 131.48 130.115 131.256C130.451 131.032 130.723 130.8 130.931 130.56H133.475V150H130.163ZM139.562 150V134.232C139.466 134.28 139.274 134.352 138.986 134.448C138.714 134.544 138.41 134.64 138.074 134.736C137.738 134.816 137.426 134.896 137.138 134.976C136.866 135.056 136.674 135.12 136.562 135.168V132.696C136.786 132.616 137.066 132.504 137.402 132.36C137.738 132.216 138.09 132.056 138.458 131.88C138.842 131.688 139.194 131.48 139.514 131.256C139.85 131.032 140.122 130.8 140.33 130.56H142.874V150H139.562ZM146.704 143.256V141.048H152.488V143.256H146.704ZM154.851 150V147.648L159.651 140.232C160.003 139.688 160.331 139.168 160.635 138.672C160.955 138.176 161.211 137.664 161.403 137.136C161.611 136.592 161.715 136 161.715 135.36C161.715 134.64 161.587 134.088 161.331 133.704C161.075 133.32 160.675 133.128 160.131 133.128C159.619 133.128 159.219 133.272 158.931 133.56C158.643 133.848 158.443 134.224 158.331 134.688C158.235 135.152 158.187 135.664 158.187 136.224V137.04H154.923V136.176C154.923 135.024 155.091 134.016 155.427 133.152C155.779 132.272 156.331 131.584 157.083 131.088C157.835 130.592 158.819 130.344 160.035 130.344C161.699 130.344 162.947 130.792 163.779 131.688C164.611 132.584 165.027 133.832 165.027 135.432C165.027 136.232 164.915 136.96 164.691 137.616C164.467 138.256 164.171 138.872 163.803 139.464C163.435 140.056 163.035 140.664 162.603 141.288L158.619 147.336H164.523V150H154.851ZM166.781 150V147.648L171.581 140.232C171.933 139.688 172.261 139.168 172.565 138.672C172.885 138.176 173.141 137.664 173.333 137.136C173.541 136.592 173.645 136 173.645 135.36C173.645 134.64 173.517 134.088 173.261 133.704C173.005 133.32 172.605 133.128 172.061 133.128C171.549 133.128 171.149 133.272 170.861 133.56C170.573 133.848 170.373 134.224 170.261 134.688C170.165 135.152 170.117 135.664 170.117 136.224V137.04H166.853V136.176C166.853 135.024 167.021 134.016 167.357 133.152C167.709 132.272 168.261 131.584 169.013 131.088C169.765 130.592 170.749 130.344 171.965 130.344C173.629 130.344 174.877 130.792 175.709 131.688C176.541 132.584 176.957 133.832 176.957 135.432C176.957 136.232 176.845 136.96 176.621 137.616C176.397 138.256 176.101 138.872 175.733 139.464C175.365 140.056 174.965 140.664 174.533 141.288L170.549 147.336H176.453V150H166.781ZM179.095 143.256V141.048H184.879V143.256H179.095ZM192.258 150.288C191.042 150.288 190.058 150.064 189.306 149.616C188.57 149.152 188.034 148.504 187.698 147.672C187.362 146.824 187.194 145.84 187.194 144.72V144.048H190.482C190.482 144.096 190.482 144.176 190.482 144.288C190.482 144.4 190.482 144.512 190.482 144.624C190.498 145.232 190.554 145.752 190.65 146.184C190.746 146.616 190.922 146.944 191.178 147.168C191.45 147.392 191.818 147.504 192.282 147.504C192.778 147.504 193.146 147.384 193.386 147.144C193.642 146.904 193.81 146.552 193.89 146.088C193.986 145.624 194.034 145.072 194.034 144.432C194.034 143.44 193.874 142.664 193.554 142.104C193.25 141.528 192.65 141.216 191.754 141.168C191.722 141.168 191.642 141.168 191.514 141.168C191.402 141.168 191.298 141.168 191.202 141.168V138.504C191.282 138.504 191.362 138.504 191.442 138.504C191.538 138.504 191.626 138.504 191.706 138.504C192.586 138.488 193.194 138.256 193.53 137.808C193.866 137.344 194.034 136.608 194.034 135.6C194.034 134.784 193.906 134.144 193.65 133.68C193.41 133.216 192.938 132.984 192.234 132.984C191.546 132.984 191.082 133.24 190.842 133.752C190.618 134.264 190.498 134.928 190.482 135.744C190.482 135.856 190.482 135.976 190.482 136.104C190.482 136.216 190.482 136.336 190.482 136.464H187.194V135.528C187.194 134.424 187.386 133.488 187.77 132.72C188.17 131.936 188.746 131.344 189.498 130.944C190.25 130.528 191.162 130.32 192.234 130.32C193.338 130.32 194.266 130.52 195.018 130.92C195.77 131.32 196.338 131.904 196.722 132.672C197.122 133.424 197.322 134.352 197.322 135.456C197.322 136.608 197.082 137.552 196.602 138.288C196.122 139.024 195.506 139.504 194.754 139.728C195.266 139.888 195.714 140.168 196.098 140.568C196.482 140.952 196.778 141.464 196.986 142.104C197.21 142.728 197.322 143.488 197.322 144.384C197.322 145.552 197.154 146.584 196.818 147.48C196.498 148.36 195.962 149.048 195.21 149.544C194.474 150.04 193.49 150.288 192.258 150.288ZM204.164 150.288C202.948 150.288 201.964 150.064 201.212 149.616C200.476 149.152 199.94 148.504 199.604 147.672C199.268 146.824 199.1 145.84 199.1 144.72V144.048H202.388C202.388 144.096 202.388 144.176 202.388 144.288C202.388 144.4 202.388 144.512 202.388 144.624C202.404 145.232 202.46 145.752 202.556 146.184C202.652 146.616 202.828 146.944 203.084 147.168C203.356 147.392 203.724 147.504 204.188 147.504C204.684 147.504 205.052 147.384 205.292 147.144C205.548 146.904 205.716 146.552 205.796 146.088C205.892 145.624 205.94 145.072 205.94 144.432C205.94 143.44 205.78 142.664 205.46 142.104C205.156 141.528 204.556 141.216 203.66 141.168C203.628 141.168 203.548 141.168 203.42 141.168C203.308 141.168 203.204 141.168 203.108 141.168V138.504C203.188 138.504 203.268 138.504 203.348 138.504C203.444 138.504 203.532 138.504 203.612 138.504C204.492 138.488 205.1 138.256 205.436 137.808C205.772 137.344 205.94 136.608 205.94 135.6C205.94 134.784 205.812 134.144 205.556 133.68C205.316 133.216 204.844 132.984 204.14 132.984C203.452 132.984 202.988 133.24 202.748 133.752C202.524 134.264 202.404 134.928 202.388 135.744C202.388 135.856 202.388 135.976 202.388 136.104C202.388 136.216 202.388 136.336 202.388 136.464H199.1V135.528C199.1 134.424 199.292 133.488 199.676 132.72C200.076 131.936 200.652 131.344 201.404 130.944C202.156 130.528 203.068 130.32 204.14 130.32C205.244 130.32 206.172 130.52 206.924 130.92C207.676 131.32 208.244 131.904 208.628 132.672C209.028 133.424 209.228 134.352 209.228 135.456C209.228 136.608 208.988 137.552 208.508 138.288C208.028 139.024 207.412 139.504 206.66 139.728C207.172 139.888 207.62 140.168 208.004 140.568C208.388 140.952 208.684 141.464 208.892 142.104C209.116 142.728 209.228 143.488 209.228 144.384C209.228 145.552 209.06 146.584 208.724 147.48C208.404 148.36 207.868 149.048 207.116 149.544C206.38 150.04 205.396 150.288 204.164 150.288ZM51.0497 186.264C49.8177 186.264 48.8257 186.016 48.0737 185.52C47.3217 185.024 46.7857 184.336 46.4657 183.456C46.1457 182.56 45.9857 181.528 45.9857 180.36C45.9857 179.8 46.0337 179.288 46.1297 178.824C46.2417 178.344 46.3937 177.912 46.5857 177.528C46.7937 177.144 47.0417 176.808 47.3297 176.52C47.6177 176.216 47.9457 175.968 48.3137 175.776C47.7377 175.376 47.2497 174.832 46.8497 174.144C46.4657 173.44 46.2657 172.552 46.2497 171.48C46.2497 170.424 46.4177 169.512 46.7537 168.744C47.1057 167.96 47.6417 167.368 48.3617 166.968C49.0817 166.552 49.9777 166.344 51.0497 166.344C52.1377 166.344 53.0337 166.552 53.7377 166.968C54.4417 167.384 54.9617 167.976 55.2977 168.744C55.6497 169.512 55.8177 170.424 55.8017 171.48C55.7857 172.568 55.5857 173.456 55.2017 174.144C54.8337 174.832 54.3617 175.376 53.7857 175.776C54.1537 175.968 54.4817 176.216 54.7697 176.52C55.0577 176.808 55.2977 177.144 55.4897 177.528C55.6977 177.912 55.8497 178.344 55.9457 178.824C56.0577 179.288 56.1137 179.8 56.1137 180.36C56.1297 181.528 55.9697 182.56 55.6337 183.456C55.3137 184.336 54.7777 185.024 54.0257 185.52C53.2897 186.016 52.2977 186.264 51.0497 186.264ZM51.0497 183.744C51.5777 183.744 51.9697 183.584 52.2257 183.264C52.4977 182.944 52.6737 182.544 52.7537 182.064C52.8337 181.568 52.8737 181.064 52.8737 180.552C52.8897 180.008 52.8497 179.488 52.7537 178.992C52.6577 178.48 52.4737 178.064 52.2017 177.744C51.9457 177.424 51.5617 177.264 51.0497 177.264C50.5537 177.264 50.1697 177.424 49.8977 177.744C49.6417 178.064 49.4577 178.472 49.3457 178.968C49.2497 179.464 49.2017 179.992 49.2017 180.552C49.2017 181.064 49.2417 181.568 49.3217 182.064C49.4177 182.56 49.6017 182.968 49.8737 183.288C50.1457 183.592 50.5377 183.744 51.0497 183.744ZM51.0497 174.456C51.4497 174.44 51.7617 174.304 51.9857 174.048C52.2257 173.776 52.3937 173.408 52.4897 172.944C52.5857 172.48 52.6337 171.952 52.6337 171.36C52.6337 170.624 52.5137 170.024 52.2737 169.56C52.0337 169.096 51.6257 168.864 51.0497 168.864C50.4897 168.864 50.0737 169.096 49.8017 169.56C49.5457 170.024 49.4177 170.616 49.4177 171.336C49.4177 171.928 49.4657 172.464 49.5617 172.944C49.6737 173.408 49.8497 173.776 50.0897 174.048C50.3297 174.304 50.6497 174.44 51.0497 174.456ZM69.864 190.464C68.872 190.464 68.056 190.24 67.416 189.792C66.776 189.36 66.264 188.752 65.88 187.968C65.496 187.2 65.208 186.312 65.016 185.304C64.84 184.28 64.728 183.184 64.68 182.016C64.632 180.848 64.608 179.664 64.608 178.464C64.608 177.216 64.632 176 64.68 174.816C64.728 173.632 64.84 172.528 65.016 171.504C65.208 170.48 65.496 169.584 65.88 168.816C66.264 168.048 66.776 167.448 67.416 167.016C68.056 166.584 68.872 166.368 69.864 166.368V168.624C69.368 168.624 68.968 168.88 68.664 169.392C68.376 169.904 68.16 170.608 68.016 171.504C67.872 172.4 67.776 173.448 67.728 174.648C67.696 175.832 67.68 177.104 67.68 178.464C67.68 179.856 67.696 181.144 67.728 182.328C67.776 183.512 67.872 184.544 68.016 185.424C68.176 186.304 68.4 186.984 68.688 187.464C68.976 187.96 69.368 188.216 69.864 188.232V190.464ZM76.7841 186.264C75.5521 186.264 74.5601 186.016 73.8081 185.52C73.0561 185.024 72.5201 184.336 72.2001 183.456C71.8801 182.56 71.7201 181.528 71.7201 180.36C71.7201 179.8 71.7681 179.288 71.8641 178.824C71.9761 178.344 72.1281 177.912 72.3201 177.528C72.5281 177.144 72.7761 176.808 73.0641 176.52C73.3521 176.216 73.6801 175.968 74.0481 175.776C73.4721 175.376 72.9841 174.832 72.5841 174.144C72.2001 173.44 72.0001 172.552 71.9841 171.48C71.9841 170.424 72.1521 169.512 72.4881 168.744C72.8401 167.96 73.3761 167.368 74.0961 166.968C74.8161 166.552 75.7121 166.344 76.7841 166.344C77.8721 166.344 78.7681 166.552 79.4721 166.968C80.1761 167.384 80.6961 167.976 81.0321 168.744C81.3841 169.512 81.5521 170.424 81.5361 171.48C81.5201 172.568 81.3201 173.456 80.9361 174.144C80.5681 174.832 80.0961 175.376 79.5201 175.776C79.8881 175.968 80.2161 176.216 80.5041 176.52C80.7921 176.808 81.0321 177.144 81.2241 177.528C81.4321 177.912 81.5841 178.344 81.6801 178.824C81.7921 179.288 81.8481 179.8 81.8481 180.36C81.8641 181.528 81.7041 182.56 81.3681 183.456C81.0481 184.336 80.5121 185.024 79.7601 185.52C79.0241 186.016 78.0321 186.264 76.7841 186.264ZM76.7841 183.744C77.3121 183.744 77.7041 183.584 77.9601 183.264C78.2321 182.944 78.4081 182.544 78.4881 182.064C78.5681 181.568 78.6081 181.064 78.6081 180.552C78.6241 180.008 78.5841 179.488 78.4881 178.992C78.3921 178.48 78.2081 178.064 77.9361 177.744C77.6801 177.424 77.2961 177.264 76.7841 177.264C76.2881 177.264 75.9041 177.424 75.6321 177.744C75.3761 178.064 75.1921 178.472 75.0801 178.968C74.9841 179.464 74.9361 179.992 74.9361 180.552C74.9361 181.064 74.9761 181.568 75.0561 182.064C75.1521 182.56 75.3361 182.968 75.6081 183.288C75.8801 183.592 76.2721 183.744 76.7841 183.744ZM76.7841 174.456C77.1841 174.44 77.4961 174.304 77.7201 174.048C77.9601 173.776 78.1281 173.408 78.2241 172.944C78.3201 172.48 78.3681 171.952 78.3681 171.36C78.3681 170.624 78.2481 170.024 78.0081 169.56C77.7681 169.096 77.3601 168.864 76.7841 168.864C76.2241 168.864 75.8081 169.096 75.5361 169.56C75.2801 170.024 75.1521 170.616 75.1521 171.336C75.1521 171.928 75.2001 172.464 75.2961 172.944C75.4081 173.408 75.5841 173.776 75.8241 174.048C76.0641 174.304 76.3841 174.44 76.7841 174.456ZM86.5224 186V170.232C86.4264 170.28 86.2344 170.352 85.9464 170.448C85.6744 170.544 85.3704 170.64 85.0344 170.736C84.6984 170.816 84.3864 170.896 84.0984 170.976C83.8264 171.056 83.6344 171.12 83.5224 171.168V168.696C83.7464 168.616 84.0264 168.504 84.3624 168.36C84.6984 168.216 85.0504 168.056 85.4184 167.88C85.8024 167.688 86.1544 167.48 86.4744 167.256C86.8104 167.032 87.0824 166.8 87.2904 166.56H89.8344V186H86.5224ZM93.2809 186V183.648L98.0809 176.232C98.4329 175.688 98.7609 175.168 99.0649 174.672C99.3849 174.176 99.6409 173.664 99.8329 173.136C100.041 172.592 100.145 172 100.145 171.36C100.145 170.64 100.017 170.088 99.7609 169.704C99.5049 169.32 99.1049 169.128 98.5609 169.128C98.0489 169.128 97.6489 169.272 97.3609 169.56C97.0729 169.848 96.8729 170.224 96.7609 170.688C96.6649 171.152 96.6169 171.664 96.6169 172.224V173.04H93.3529V172.176C93.3529 171.024 93.5209 170.016 93.8569 169.152C94.2089 168.272 94.7609 167.584 95.5129 167.088C96.2649 166.592 97.2489 166.344 98.4649 166.344C100.129 166.344 101.377 166.792 102.209 167.688C103.041 168.584 103.457 169.832 103.457 171.432C103.457 172.232 103.345 172.96 103.121 173.616C102.897 174.256 102.601 174.872 102.233 175.464C101.865 176.056 101.465 176.664 101.033 177.288L97.0489 183.336H102.953V186H93.2809ZM104.995 190.464V188.208C105.491 188.208 105.883 187.96 106.171 187.464C106.475 186.968 106.699 186.28 106.843 185.4C106.987 184.504 107.083 183.464 107.131 182.28C107.179 181.096 107.203 179.816 107.203 178.44C107.203 177.064 107.179 175.784 107.131 174.6C107.083 173.4 106.987 172.36 106.843 171.48C106.715 170.584 106.499 169.888 106.195 169.392C105.907 168.88 105.507 168.616 104.995 168.6V166.368C105.987 166.368 106.803 166.584 107.443 167.016C108.099 167.432 108.619 168.032 109.003 168.816C109.387 169.584 109.667 170.48 109.843 171.504C110.019 172.512 110.131 173.608 110.179 174.792C110.227 175.96 110.251 177.176 110.251 178.44C110.251 179.64 110.227 180.824 110.179 181.992C110.131 183.16 110.019 184.256 109.843 185.28C109.667 186.304 109.387 187.2 109.003 187.968C108.619 188.752 108.099 189.36 107.443 189.792C106.803 190.24 105.987 190.464 104.995 190.464ZM120.765 186V170.232C120.669 170.28 120.477 170.352 120.189 170.448C119.917 170.544 119.613 170.64 119.277 170.736C118.941 170.816 118.629 170.896 118.341 170.976C118.069 171.056 117.877 171.12 117.765 171.168V168.696C117.989 168.616 118.269 168.504 118.605 168.36C118.941 168.216 119.293 168.056 119.661 167.88C120.045 167.688 120.397 167.48 120.717 167.256C121.053 167.032 121.325 166.8 121.533 166.56H124.077V186H120.765ZM130.163 186V170.232C130.067 170.28 129.875 170.352 129.587 170.448C129.315 170.544 129.011 170.64 128.675 170.736C128.339 170.816 128.027 170.896 127.739 170.976C127.467 171.056 127.275 171.12 127.163 171.168V168.696C127.387 168.616 127.667 168.504 128.003 168.36C128.339 168.216 128.691 168.056 129.059 167.88C129.443 167.688 129.795 167.48 130.115 167.256C130.451 167.032 130.723 166.8 130.931 166.56H133.475V186H130.163ZM139.562 186V170.232C139.466 170.28 139.274 170.352 138.986 170.448C138.714 170.544 138.41 170.64 138.074 170.736C137.738 170.816 137.426 170.896 137.138 170.976C136.866 171.056 136.674 171.12 136.562 171.168V168.696C136.786 168.616 137.066 168.504 137.402 168.36C137.738 168.216 138.09 168.056 138.458 167.88C138.842 167.688 139.194 167.48 139.514 167.256C139.85 167.032 140.122 166.8 140.33 166.56H142.874V186H139.562ZM146.704 179.256V177.048H152.488V179.256H146.704ZM154.851 186V183.648L159.651 176.232C160.003 175.688 160.331 175.168 160.635 174.672C160.955 174.176 161.211 173.664 161.403 173.136C161.611 172.592 161.715 172 161.715 171.36C161.715 170.64 161.587 170.088 161.331 169.704C161.075 169.32 160.675 169.128 160.131 169.128C159.619 169.128 159.219 169.272 158.931 169.56C158.643 169.848 158.443 170.224 158.331 170.688C158.235 171.152 158.187 171.664 158.187 172.224V173.04H154.923V172.176C154.923 171.024 155.091 170.016 155.427 169.152C155.779 168.272 156.331 167.584 157.083 167.088C157.835 166.592 158.819 166.344 160.035 166.344C161.699 166.344 162.947 166.792 163.779 167.688C164.611 168.584 165.027 169.832 165.027 171.432C165.027 172.232 164.915 172.96 164.691 173.616C164.467 174.256 164.171 174.872 163.803 175.464C163.435 176.056 163.035 176.664 162.603 177.288L158.619 183.336H164.523V186H154.851ZM166.781 186V183.648L171.581 176.232C171.933 175.688 172.261 175.168 172.565 174.672C172.885 174.176 173.141 173.664 173.333 173.136C173.541 172.592 173.645 172 173.645 171.36C173.645 170.64 173.517 170.088 173.261 169.704C173.005 169.32 172.605 169.128 172.061 169.128C171.549 169.128 171.149 169.272 170.861 169.56C170.573 169.848 170.373 170.224 170.261 170.688C170.165 171.152 170.117 171.664 170.117 172.224V173.04H166.853V172.176C166.853 171.024 167.021 170.016 167.357 169.152C167.709 168.272 168.261 167.584 169.013 167.088C169.765 166.592 170.749 166.344 171.965 166.344C173.629 166.344 174.877 166.792 175.709 167.688C176.541 168.584 176.957 169.832 176.957 171.432C176.957 172.232 176.845 172.96 176.621 173.616C176.397 174.256 176.101 174.872 175.733 175.464C175.365 176.056 174.965 176.664 174.533 177.288L170.549 183.336H176.453V186H166.781ZM179.095 179.256V177.048H184.879V179.256H179.095ZM192.258 186.288C191.042 186.288 190.058 186.064 189.306 185.616C188.57 185.152 188.034 184.504 187.698 183.672C187.362 182.824 187.194 181.84 187.194 180.72V180.048H190.482C190.482 180.096 190.482 180.176 190.482 180.288C190.482 180.4 190.482 180.512 190.482 180.624C190.498 181.232 190.554 181.752 190.65 182.184C190.746 182.616 190.922 182.944 191.178 183.168C191.45 183.392 191.818 183.504 192.282 183.504C192.778 183.504 193.146 183.384 193.386 183.144C193.642 182.904 193.81 182.552 193.89 182.088C193.986 181.624 194.034 181.072 194.034 180.432C194.034 179.44 193.874 178.664 193.554 178.104C193.25 177.528 192.65 177.216 191.754 177.168C191.722 177.168 191.642 177.168 191.514 177.168C191.402 177.168 191.298 177.168 191.202 177.168V174.504C191.282 174.504 191.362 174.504 191.442 174.504C191.538 174.504 191.626 174.504 191.706 174.504C192.586 174.488 193.194 174.256 193.53 173.808C193.866 173.344 194.034 172.608 194.034 171.6C194.034 170.784 193.906 170.144 193.65 169.68C193.41 169.216 192.938 168.984 192.234 168.984C191.546 168.984 191.082 169.24 190.842 169.752C190.618 170.264 190.498 170.928 190.482 171.744C190.482 171.856 190.482 171.976 190.482 172.104C190.482 172.216 190.482 172.336 190.482 172.464H187.194V171.528C187.194 170.424 187.386 169.488 187.77 168.72C188.17 167.936 188.746 167.344 189.498 166.944C190.25 166.528 191.162 166.32 192.234 166.32C193.338 166.32 194.266 166.52 195.018 166.92C195.77 167.32 196.338 167.904 196.722 168.672C197.122 169.424 197.322 170.352 197.322 171.456C197.322 172.608 197.082 173.552 196.602 174.288C196.122 175.024 195.506 175.504 194.754 175.728C195.266 175.888 195.714 176.168 196.098 176.568C196.482 176.952 196.778 177.464 196.986 178.104C197.21 178.728 197.322 179.488 197.322 180.384C197.322 181.552 197.154 182.584 196.818 183.48C196.498 184.36 195.962 185.048 195.21 185.544C194.474 186.04 193.49 186.288 192.258 186.288ZM204.164 186.288C202.948 186.288 201.964 186.064 201.212 185.616C200.476 185.152 199.94 184.504 199.604 183.672C199.268 182.824 199.1 181.84 199.1 180.72V180.048H202.388C202.388 180.096 202.388 180.176 202.388 180.288C202.388 180.4 202.388 180.512 202.388 180.624C202.404 181.232 202.46 181.752 202.556 182.184C202.652 182.616 202.828 182.944 203.084 183.168C203.356 183.392 203.724 183.504 204.188 183.504C204.684 183.504 205.052 183.384 205.292 183.144C205.548 182.904 205.716 182.552 205.796 182.088C205.892 181.624 205.94 181.072 205.94 180.432C205.94 179.44 205.78 178.664 205.46 178.104C205.156 177.528 204.556 177.216 203.66 177.168C203.628 177.168 203.548 177.168 203.42 177.168C203.308 177.168 203.204 177.168 203.108 177.168V174.504C203.188 174.504 203.268 174.504 203.348 174.504C203.444 174.504 203.532 174.504 203.612 174.504C204.492 174.488 205.1 174.256 205.436 173.808C205.772 173.344 205.94 172.608 205.94 171.6C205.94 170.784 205.812 170.144 205.556 169.68C205.316 169.216 204.844 168.984 204.14 168.984C203.452 168.984 202.988 169.24 202.748 169.752C202.524 170.264 202.404 170.928 202.388 171.744C202.388 171.856 202.388 171.976 202.388 172.104C202.388 172.216 202.388 172.336 202.388 172.464H199.1V171.528C199.1 170.424 199.292 169.488 199.676 168.72C200.076 167.936 200.652 167.344 201.404 166.944C202.156 166.528 203.068 166.32 204.14 166.32C205.244 166.32 206.172 166.52 206.924 166.92C207.676 167.32 208.244 167.904 208.628 168.672C209.028 169.424 209.228 170.352 209.228 171.456C209.228 172.608 208.988 173.552 208.508 174.288C208.028 175.024 207.412 175.504 206.66 175.728C207.172 175.888 207.62 176.168 208.004 176.568C208.388 176.952 208.684 177.464 208.892 178.104C209.116 178.728 209.228 179.488 209.228 180.384C209.228 181.552 209.06 182.584 208.724 183.48C208.404 184.36 207.868 185.048 207.116 185.544C206.38 186.04 205.396 186.288 204.164 186.288Z" fill="black"/>
</svg>
